# xmcd
#
# Track frame offsets:
#   150
#   14346
#   30333
#   46770
#   59154
#   74402
#   90244
#   106946
#   124318
#   140665
#   162343
#   176935
#   198096
#   213693
#   230418
#   248046
#   261062
#   273017
#   288945
#   303095
#   314645
#   332462
#
# Disc length: 4699 seconds
#
# Revision: 1
# Processed by: cddbd v1.4PL0 Copyright (c) Steve Scherf et al.
# Submitted via: Media_Universe 3.0
#
DISCID=3a125916
DTITLE=Various Artist - C and W
DYEAR=1900
DGENRE=Country
TTITLE0=7 Bridges Road
TTITLE1=Why Not Me
TTITLE2=My Next 30 Years
TTITLE3=She just started likin' cheatin songs
TTITLE4=Roll with the punches
TTITLE5=My Maria
TTITLE6=How long gone
TTITLE7=Buy me a rose
TTITLE8=Waiting for daylight
TTITLE9=The bluest eyes in texas
TTITLE10=Love is stronger than pride
TTITLE11=From this moment
TTITLE12=You've got a way with me
TTITLE13=Write this down
TTITLE14=Go on
TTITLE15=Amarillo by morning
TTITLE16=WWW.Memories
TTITLE17=You won't ever be lonely
TTITLE18=Pop a Top
TTITLE19=Sold
TTITLE20=I can love you like that
TTITLE21=I swear
EXTD=
EXTT0=
EXTT1=
EXTT2=
EXTT3=
EXTT4=
EXTT5=
EXTT6=
EXTT7=
EXTT8=
EXTT9=
EXTT10=
EXTT11=
EXTT12=
EXTT13=
EXTT14=
EXTT15=
EXTT16=
EXTT17=
EXTT18=
EXTT19=
EXTT20=
EXTT21=
PLAYORDER=
